<svg width="516" height="340" viewBox="0 0 516 340" fill="none" xmlns="http://www.w3.org/2000/svg">
<path d="M88.3285 8.17505L88.7623 16.4935L111.172 17.2106C125.052 17.6409 134.739 18.6449 136.763 19.7922C144.426 24.0949 144.426 24.0949 144.426 77.4479V126.928L128.233 142.992L111.895 159.198L128.233 175.405L144.426 191.468V228.041C144.426 268.056 143.269 276.231 136.04 290.86C130.835 301.473 120.426 311.943 110.16 316.676C103.22 319.831 99.1721 320.548 87.1719 320.978C70.9788 321.696 60.2798 319.401 49.5807 313.234C41.9179 308.788 30.6406 296.884 27.8935 290.43C25.0019 283.258 25.2911 272.072 28.6164 268.056L31.2189 264.757L42.93 267.482C54.0628 269.92 54.9302 269.92 61.1472 267.625C80.0874 260.454 86.449 234.495 73.5812 216.854C64.4726 204.233 43.6529 199.787 28.0381 207.101C18.6403 211.404 8.0859 223.021 4.03763 233.491C0.133931 243.817 -1.1673 262.175 1.146 274.223C7.07383 304.198 31.7972 328.867 64.328 337.042C79.7982 341.057 104.522 340.914 121.293 337.042C157.728 328.293 183.752 304.341 191.415 272.358C193.005 265.474 193.584 254.287 193.584 227.324V191.468L209.777 175.405L226.115 159.198L209.777 142.992L193.584 126.928V79.1689C193.584 25.5291 193.873 23.808 202.837 19.5054C207.464 17.3541 212.524 17.0672 245.488 17.4975C282.935 17.9277 282.935 17.9277 286.694 21.3699L290.453 24.812V165.939C290.453 264.327 290.019 307.927 288.863 310.078C285.971 315.385 278.887 316.963 257.199 316.963H236.958V325.568V334.173H317.924H398.889V325.568V316.963L377.636 316.819C353.924 316.819 347.997 315.528 343.37 309.361C340.334 305.345 340.334 303.768 339.9 237.077L339.466 168.951L360.864 169.525C385.732 170.385 392.383 172.25 402.504 180.999C413.492 190.608 419.853 206.097 421.878 228.471L422.745 238.798L431.131 239.228L439.372 239.658V163.501V87.4874H430.697H422.022V94.2282C421.878 111.295 414.793 129.08 403.949 138.976C392.528 149.446 387.033 151.167 361.587 151.74L339.466 152.314L339.9 88.2045L340.334 24.0949L344.382 20.6528L348.43 17.2106H385.299C426.938 17.2106 438.215 18.6449 453.685 26.2462C476.818 37.4331 488.819 59.3767 498.65 107.853L500.241 116.172H508.193H516V110.005C516 106.706 514.988 82.3242 513.831 55.9346C512.675 29.5449 511.663 6.16714 511.663 3.87238V0H299.851H87.8948L88.3285 8.17505Z" fill="#1C3A5F"/>
</svg>
